<mxfile host="app.diagrams.net" modified="2023-03-27T08:39:16.022Z" agent="Mozilla/5.0 (Windows NT 10.0; Win64; x64) AppleWebKit/537.36 (KHTML, like Gecko) Chrome/111.0.0.0 Safari/537.36 Edg/111.0.1661.54" version="21.1.1" etag="gm8EiH5moqGzR8H0lLSW" type="github">
  <diagram name="Страница 1" id="JcT4qVj4Qs6Jgr_9JU1f">
    <mxGraphModel>
      <root>
        <mxCell id="0" />
        <mxCell id="1" parent="0" />
      </root>
    </mxGraphModel>
  </diagram>
</mxfile>
